{"title":"Killjoys S02E07 1080p Web-Dl","uid":15581447,"size":2340391413,"categoryP":"video","categoryS":"hd___tv_shows","magnet":"?xt=urn:btih:52d5a112a9fc28cff2791c81d56d3fd71ae977e9&amp;dn=Killjoys+S02E07+1080p+Web-Dl&amp;tr=udp%3A%2F%2Ftracker.leechers-paradise.org%3A6969&amp;tr=udp%3A%2F%2Fzer0day.ch%3A1337&amp;tr=udp%3A%2F%2Fopen.demonii.com%3A1337&amp;tr=udp%3A%2F%2Ftracker.coppersurfer.tk%3A6969&amp;tr=udp%3A%2F%2Fexodus.desync.com%3A6969","seeders":0,"leechers":5,"uploader":null,"files":2,"time":1471413868,"description":"Killjoys S02E07 1080p Web-Dl\r\nGeneral\r\nComplete name               : C:SÓ SÉRIES ATUAISKILLJOYS-S02 (SEXTA)207-Killjoys (Heart-Shaped Box)Killjoys.s02e07.WEB-DL.1080p.DD5.1.H.264-FOCUS.mp4\r\nFormat                      : MPEG-4\r\nFormat profile              : Base Media\r\nCodec ID                    : isom (isom/iso2/mp41)\r\nFile size                   : 2.18 GiB\r\nDuration                    : 43 min\r\nOverall bit rate mode       : Variable\r\nOverall bit rate            : 7 251 kb/s\r\nWriting application         : Lavf57.26.100\r\n\r\nVideo\r\nID                          : 1\r\nFormat                      : MPEG-4 Visual\r\nFormat profile              :   \r\nFormat settings, BVOP       : No\r\nFormat settings, QPel       : No\r\nFormat settings, GMC        : No warppoints\r\nFormat settings, Matrix     : Default (H.263)\r\nCodec ID                    : 20\r\nDuration                    : 43 min\r\nBit rate mode               : Variable\r\nBit rate                    : 7 000 kb/s\r\nWidth                       : 1 920 pixels\r\nHeight                      : 1 080 pixels\r\nDisplay aspect ratio        : 16:9\r\nFrame rate mode             : Constant\r\nFrame rate                  : 23.976 (23976/1000) FPS\r\nColor space                 : YUV\r\nChroma subsampling          : 4:2:0\r\nBit depth                   : 8 bits\r\nScan type                   : Progressive\r\nCompression mode            : Lossy\r\nBits/(Pixel*Frame)          : 0.141\r\nStream size                 : 2.09 GiB (96%)\r\nWriting library             : Lavc57.27.100\r\n\r\nAudio\r\nID                          : 2\r\nFormat                      : AAC\r\nFormat/Info                 : Advanced Audio Codec\r\nFormat profile              : LC\r\nCodec ID                    : 40\r\nDuration                    : 43 min\r\nBit rate mode               : Variable\r\nBit rate                    : 288 kb/s\r\nMaximum bit rate            : 320 kb/s\r\nChannel(s)                  : 2 channels\r\nChannel positions           : Front: L R\r\nSampling rate               : 48.0 kHz\r\nFrame rate                  : 46.875 FPS (1024 spf)\r\nCompression mode            : Lossy\r\nStream size                 : 87.8 MiB (4%)\r\nLanguage                    : English\r\nDefault                     : Yes\r\nAlternate group             : 1","torrent":{"xt":"urn:btih:52d5a112a9fc28cff2791c81d56d3fd71ae977e9","amp;dn":"Killjoys+S02E07+1080p+Web-Dl","amp;tr":["udp%3A%2F%2Ftracker.leechers-paradise.org%3A6969","udp%3A%2F%2Fzer0day.ch%3A1337","udp%3A%2F%2Fopen.demonii.com%3A1337","udp%3A%2F%2Ftracker.coppersurfer.tk%3A6969","udp%3A%2F%2Fexodus.desync.com%3A6969"],"infoHash":"52d5a112a9fc28cff2791c81d56d3fd71ae977e9","infoHashBuffer":{"type":"Buffer","data":[82,213,161,18,169,252,40,207,242,121,28,129,213,109,63,215,26,233,119,233]},"announce":[],"urlList":[]}}